<svg xmlns="http://www.w3.org/2000/svg" xmlns:xlink="http://www.w3.org/1999/xlink" viewBox="0 0 115.02 70.27"><defs><style>.cls-1{fill:url(#linear-gradient);}.cls-2{fill:url(#linear-gradient-2);}.cls-3{fill:url(#linear-gradient-3);}</style><linearGradient id="linear-gradient" x1="-1207.66" y1="2333.13" x2="-1137.39" y2="2333.13" gradientTransform="translate(2368.26 1207.66) rotate(90)" gradientUnits="userSpaceOnUse"><stop offset="0" stop-color="#02edf3"/><stop offset="1" stop-color="#8d22ff"/></linearGradient><linearGradient id="linear-gradient-2" x1="-1198.54" y1="2333.13" x2="-1137.39" y2="2333.13" xlink:href="#linear-gradient"/><linearGradient id="linear-gradient-3" x1="44.8" y1="35.14" x2="127.33" y2="35.14" gradientTransform="matrix(1, 0, 0, 1, 0, 0)" xlink:href="#linear-gradient"/></defs><g id="Layer_2" data-name="Layer 2"><g id="Layer_1-2" data-name="Layer 1"><path class="cls-1" d="M70.27,70.27V35.14a35.11,35.11,0,1,0-26.39,34v-19a17.38,17.38,0,1,1,8.64-15h3.41V63.46a36,36,0,0,0,5.22-4.72V70.27Z"/><path class="cls-2" d="M61.15,35.14h0a26,26,0,1,0-17.27,24.5V50.15a17.38,17.38,0,1,1,8.64-15h0v26.5a8.63,8.63,0,0,0,8.63,8.63Z"/><path class="cls-3" d="M115,33.22h0A35.14,35.14,0,0,0,69.91,1.46h0c-.45.13-.9.28-1.35.43L68.16,2l-1,.38-.69.27L65.8,3c-.33.15-.67.29-1,.45l-.34.16c-.43.21-.85.43-1.28.66h0c-.63.34-1.25.71-1.86,1.09.51.56,1,1.1,1.54,1.61,3.65,3.61,6.47,8.17,9.31,12.74l2-.95a17.52,17.52,0,0,1,6.53-.94,17.32,17.32,0,0,1,9.42,3.32l.17.12a18,18,0,0,1,1.88,1.63,16.37,16.37,0,0,1,1.73,2c.18.23.34.47.5.71s.35.54.51.82a17.39,17.39,0,0,1-6.39,23.83c-.25.14-.5.28-.76.41l-.09.05-1,.46h0c-.3.13-.61.24-.92.35a17.31,17.31,0,0,1-10.7.31V69.94a35.16,35.16,0,0,0,11.35-.27l.28,0,.91-.19.65-.15A35.11,35.11,0,0,0,115,33.22Z"/></g></g></svg>