<svg xmlns="http://www.w3.org/2000/svg" xmlns:xlink="http://www.w3.org/1999/xlink" viewBox="0 0 246.13 151.23"><defs><style>.cls-1{fill:url(#New_Gradient_Swatch_copy);}.cls-2{fill:url(#New_Gradient_Swatch_copy-2);}.cls-3{fill:url(#New_Gradient_Swatch_copy-3);}</style><linearGradient id="New_Gradient_Swatch_copy" x1="-999.9" y1="-680.71" x2="-850.12" y2="-680.71" gradientTransform="translate(-605.82 1001.35) rotate(90)" gradientUnits="userSpaceOnUse"><stop offset="0" stop-color="#823dd9"/><stop offset="0.11" stop-color="#7a39d9"/><stop offset="0.7" stop-color="#5227d7"/><stop offset="1" stop-color="#4220d6"/></linearGradient><linearGradient id="New_Gradient_Swatch_copy-2" x1="-980.47" y1="-680.71" x2="-850.12" y2="-680.71" xlink:href="#New_Gradient_Swatch_copy"/><linearGradient id="New_Gradient_Swatch_copy-3" x1="96.46" y1="74.89" x2="272.36" y2="74.89" gradientTransform="matrix(1, 0, 0, 1, 0, 0)" xlink:href="#New_Gradient_Swatch_copy"/></defs><g id="Layer_2" data-name="Layer 2"><g id="OBJECTS"><path class="cls-1" d="M149.78,151.23V76.34a74.82,74.82,0,1,0-56.25,72.55V108.35a37,37,0,1,1,18.41-32h7.27V136.7a75.35,75.35,0,0,0,11.14-10v24.58Z"/><path class="cls-2" d="M130.35,76.34h0a55.44,55.44,0,1,0-36.82,52.23V108.35a37,37,0,1,1,18.41-32h0v56.48a18.41,18.41,0,0,0,18.41,18.41Z"/><path class="cls-3" d="M246,70.8h.11A74.91,74.91,0,0,0,150,3.11l-.06,0q-1.44.44-2.88.93l-.78.26c-.72.26-1.43.54-2.15.81l-1.47.58-1.42.62c-.71.31-1.42.63-2.12,1l-.71.35c-.91.45-1.82.91-2.72,1.4h0c-1.34.72-2.65,1.5-3.95,2.32,1.08,1.18,2.17,2.33,3.28,3.43,7.78,7.69,13.8,17.4,19.83,27.14,0,0,4.26-2,4.28-2a37.49,37.49,0,0,1,13.91-2A37,37,0,0,1,193.08,45l.35.26a37.53,37.53,0,0,1,4,3.48,37.15,37.15,0,0,1,3.69,4.3c.36.5.72,1,1.06,1.52s.73,1.15,1.07,1.74a37.05,37.05,0,0,1-13.6,50.79c-.54.3-1.08.6-1.63.88l-.19.1c-.7.35-1.4.67-2.12,1h0c-.64.27-1.29.52-1.94.75a36.79,36.79,0,0,1-12.42,2.15,37.2,37.2,0,0,1-10.41-1.49v38.62a75.3,75.3,0,0,0,24.2-.56l.6-.11,1.93-.4,1.39-.33A74.85,74.85,0,0,0,246,70.8Z"/></g></g></svg>